<?xml version="1.0" encoding="iso-8859-1"?>
<!-- Uploaded to: SVG Repo, www.svgrepo.com, Generator: SVG Repo Mixer Tools -->
<svg fill="#ff3333" height="800px" width="800px" version="1.1" id="Layer_1" xmlns="http://www.w3.org/2000/svg" xmlns:xlink="http://www.w3.org/1999/xlink" 
	 viewBox="0 0 500.833 500.833" xml:space="preserve">
<g>
	<g>
		<path d="M483.403,2.598c-27.733-4.267-56.533-3.2-83.2,4.267c-6.4,1.067-14.933,3.2-21.333,8.533
			c-8.533,6.4-12.8,13.867-17.067,20.267l-11.733,18.133l-33.067-21.333c-9.6-6.4-22.4-3.2-28.8,6.4l-27.733,42.667
			c-16-3.2-32-5.333-48-5.333c-71.467,0-137.6,35.2-177.067,94.933c-30.933,48-42.667,104.533-30.933,160
			s43.733,103.467,90.667,134.4c35.2,23.467,75.733,35.2,117.333,35.2c71.467,0,138.667-35.2,177.067-96
			c48-73.6,45.867-171.733-6.4-242.133l27.733-42.667c3.2-5.333,8.533-19.2-5.333-28.8l-21.333-13.867l12.8-20.267
			c2.133-3.2,4.267-7.467,6.4-8.533c2.133-1.067,6.4-2.133,7.467-2.133c21.333-5.333,44.8-6.4,66.133-3.2
			c10.667,2.133,21.333-6.4,23.467-17.067C502.603,15.398,495.136,4.731,483.403,2.598z M355.403,381.264
			c-32,48-85.333,76.8-142.933,76.8c-33.067,0-66.133-9.6-93.867-27.733c-38.4-24.533-64-62.933-73.6-107.733
			c-9.6-44.8-1.067-89.6,24.533-128c32-48,85.333-76.8,142.933-76.8c18.133,0,35.2,3.2,52.267,6.4
			c8.533,3.2,18.133-1.067,23.467-8.533l24.533-37.333l53.333,35.2l-24.533,37.333c-5.333,8.533-5.333,18.133,1.067,25.6
			C391.67,234.064,397.003,318.331,355.403,381.264z"/>
	</g>
</g>
</svg>